#!OML:ASF E:\acrobat2\Project_11_07_03\Capture day 1\Session 1\Acrobat.ASF
:FULLY-SPECIFIED
:DEGREES
209
root 7.46703 21.0512 7.86389 106.943 -2.2376 -65.8789
lowerback 8.83461 1.43109 -4.21817
upperback 9.47523 1.32899 -6.77004
thorax 5.06958 0.443725 -4.84103
lowerneck -5.71744 0.652382 -1.65376
upperneck 16.1031 1.00158 -0.707649
head 5.79935 0.250003 0.109253
rclavicle -3.81667e-014 -9.54166e-015
rhumerus -66.9502 0.213131 -44.0704
rradius 40.6716
rwrist -27.3315
rhand 9.31187 -35.5617
rfingers 7.12502
rthumb 34.4734 -62.2392
lclavicle -3.81667e-014 -9.54166e-015
lhumerus -24.8479 -43.9689 48.4393
lradius 32.8562
lwrist 46.8318
lhand -31.5033 -15.55
lfingers 7.12502
lthumb -4.7691 14.3763
rfemur 7.26711 -21.4767 -30.3489
rtibia 64.4469
rfoot -2.11331 4.4389
rtoes -36.6945
lfemur 151.835 172.686 230.977
ltibia 1.72489
lfoot -31.1263 -39.189
ltoes 69.4636
210
root 7.74822 21.5243 8.44318 110.029 3.90542 -65.5477
lowerback 10.6556 0.460855 -3.03962
upperback 10.2129 0.0460222 -5.89895
thorax 4.77901 -0.14664 -4.52348
lowerneck -2.28077 1.10894 -4.89053
upperneck 12.3859 1.30645 2.78698
head 4.45848 0.45868 1.87083
rclavicle -2.54444e-014 6.36111e-015
rhumerus -64.5665 -2.51842 -49.4006
rradius 41.3722
rwrist -35.0559
rhand 5.73501 -35.3269
rfingers 7.12502
rthumb 31.0708 -62.7149
lclavicle -2.54444e-014 6.36111e-015
lhumerus -29.3076 -48.3387 58.2795
lradius 31.6955
lwrist 44.8655
lhand -34.876 -5.68041
lfingers 7.12502
lthumb -8.02514 24.1472
rfemur -1.05569 -24.7658 -26.4778
rtibia 72.9954
rfoot -5.60789 3.79537
rtoes -35.1438
lfemur 140.042 151.999 222.067
ltibia 22.7744
lfoot -6.52017 -20.1795
ltoes 69.6893
211
root 8.05618 21.8967 9.03361 112.925 10.7039 -65.8697
lowerback 12.5938 -0.0296572 -1.85582
upperback 11.3553 -0.620871 -4.75114
thorax 4.91945 -0.473429 -3.93798
lowerneck -3.93607 -1.48277 -4.91522
upperneck 10.5799 -1.84638 2.18843
head 4.27422 -1.01714 1.52198
rclavicle 2.82274e-014 3.81667e-014
rhumerus -60.1301 -4.81702 -54.344
rradius 41.0656
rwrist -38.1182
rhand 2.47964 -41.134
rfingers 7.12502
rthumb 27.9632 -69.0713
lclavicle 2.82274e-014 3.81667e-014
lhumerus -30.3601 -48.5612 64.8691
lradius 33.575
lwrist 45.2092
lhand -35.8511 -2.0108
lfingers 7.12502
lthumb -8.96609 27.7787
rfemur -10.6422 -25.9306 -21.3464
rtibia 79.3348
rfoot -8.29259 4.64015
rtoes -18.4295
lfemur 129.54 143.923 215.281
ltibia 40.1632
lfoot -6.67091 -8.64498
ltoes 63.5699
212
root 8.39228 22.1315 9.62257 115.785 17.3854 -66.8039
lowerback 14.4876 -0.0801536 -0.940726
upperback 12.1658 -0.755883 -3.69706
thorax 4.78453 -0.575438 -3.3257
lowerneck -1.60272 -3.17715 -7.04127
upperneck 6.52548 -4.17131 4.11856
head 2.64967 -2.11788 2.46192
rclavicle 4.21423e-014 -1.43125e-013
rhumerus -55.4868 -5.27146 -59.4643
rradius 40.5732
rwrist -40.6561
rhand 1.98615 -34.5885
rfingers 7.12502
rthumb 27.4913 -62.6018
lclavicle 4.21423e-014 -1.43125e-013
lhumerus -29.5192 -50.0517 70.1512
lradius 36.7069
lwrist 45.4083
lhand -38.6393 6.56841
lfingers 7.12502
lthumb -11.6559 36.2242
rfemur -21.3997 -27.8706 -16.2328
rtibia 79.7695
rfoot -5.91305 -2.1589
rtoes -31.8523
lfemur 122.196 141.893 210.738
ltibia 53.033
lfoot -10.5034 -4.7289
ltoes 56.5905
213
root 8.74387 22.229 10.1984 118.353 23.8885 -67.8697
lowerback 16.3817 -0.148667 -0.289473
upperback 13.1422 -0.942163 -2.81579
thorax 4.86573 -0.737791 -2.744
lowerneck -0.399463 -5.07374 -8.16577
upperneck 3.80145 -6.73599 4.949
head 1.77902 -3.38626 2.89596
rclavicle -1.1291e-013 3.49861e-014
rhumerus -49.7151 -4.36272 -63.8476
rradius 41.7062
rwrist -42.6985
rhand 2.65286 -35.0433
rfingers 7.12502
rthumb 28.1288 -62.9535
lclavicle -1.1291e-013 3.49861e-014
lhumerus -24.9654 -48.6668 71.1888
lradius 39.1649
lwrist 47.4553
lhand -31.6265 -1.25912
lfingers 7.12502
lthumb -4.88813 28.6645
rfemur -33.5999 -28.2156 -11.0968
rtibia 84.0786
rfoot -2.45173 -24.6984
rtoes -31.4259
lfemur 115.356 141.376 205.657
ltibia 65.0056
lfoot 2.59165 20.2042
ltoes 41.3242
